<svg width="3104" height="2170" viewBox="0 0 3104 2170" fill="none" xmlns="http://www.w3.org/2000/svg" xmlns:xlink="http://www.w3.org/1999/xlink">
<path d="M0,174L3104,174L3104,2050.474C2192.2,1678.38 1613.434,2086.484 1242.678,2164.504C871.922,2242.52 1555.234,1458.324 1015.266,1811.414C475.3,2164.504 303.046,2050.474 0,2050.474L0,174Z" fill="#5985F8" fill-opacity="0.61"/>
<path d="M224,208L3104,208L3104,1832.524C2258,1510.39 1721,1863.698 1377,1931.242C1033,1998.786 1667,1319.88 1166,1625.562C665,1931.242 505.178,1832.524 224,1832.524L224,208Z" fill="#5985F8"/>
<path d="M972,219.71C972,421.95 410.156,724 177.159,724C-55.838,724 8,568.424 8,366.184C8,163.947 196.881,0 429.878,0C662.874,0 972,17.473 972,219.71Z" fill="#B9C7ED" fill-opacity="0.69" stroke="#0646EB" stroke-width="2" stroke-miterlimit="3.999327"/>
</svg>
