<svg width="1208" height="1148" viewBox="0 0 1208 1148" fill="none" xmlns="http://www.w3.org/2000/svg" xmlns:xlink="http://www.w3.org/1999/xlink">
<path d="M902,363C902,563.48 700.08,726 451,726C201.92,726 0,563.48 0,363C0,162.521 201.92,0 451,0C700.08,0 902,162.521 902,363Z" fill="url(#pattern_0_45_59)"/>
<path d="M940,863C940,1020.402 811.506,1148 653,1148C494.494,1148 366,1020.402 366,863C366,705.599 494.494,578 653,578C811.506,578 940,705.599 940,863Z" fill="url(#pattern_0_45_60)"/>
<path d="M1208,456C1208,605.116 1088.012,726 940,726C791.988,726 672,605.116 672,456C672,306.883 791.988,186 940,186C1088.012,186 1208,306.883 1208,456Z" fill="url(#pattern_0_49_67)"/>
</svg>
